<svg width="38" height="38" viewBox="0 0 38 38" fill="none" xmlns="http://www.w3.org/2000/svg">
<path d="M16.264 2.26103L16.245 3.89503L16.074 3.91403C15.9727 3.9267 15.8967 3.95837 15.8967 3.9837C15.8967 4.00903 15.6117 4.08503 15.2634 4.14837C14.915 4.2117 14.63 4.2877 14.63 4.31937C14.63 4.3447 14.5857 4.37003 14.5224 4.37003C14.3957 4.37003 13.7244 4.5727 13.68 4.62336C13.661 4.6487 13.4774 4.71836 13.2684 4.7817C13.0594 4.84503 12.8757 4.9147 12.8567 4.9337C12.8377 4.95903 12.6984 5.0287 12.54 5.09837C12.3817 5.16803 12.217 5.2567 12.1727 5.30103C12.1284 5.34536 12.0524 5.38337 12.008 5.38337C11.9637 5.38337 11.875 5.43403 11.8054 5.49737C11.742 5.5607 11.59 5.66837 11.4697 5.73803C11.3494 5.80136 11.134 5.9787 10.9884 6.12436C10.8427 6.27637 10.697 6.3967 10.6654 6.3967C10.6337 6.3967 10.469 6.56137 10.2917 6.75137C10.1207 6.9477 9.88636 7.20103 9.77236 7.31503C9.6647 7.43537 9.55703 7.58737 9.5317 7.66337C9.50636 7.73303 9.42403 7.86603 9.33536 7.96103C9.25303 8.0497 9.18336 8.17636 9.18336 8.2397C9.18336 8.30937 9.15803 8.36003 9.1327 8.36003C9.10103 8.36003 9.02503 8.51837 8.9617 8.70836C8.89203 8.89837 8.82236 9.0567 8.80336 9.0567C8.77803 9.0567 8.70836 9.22136 8.6387 9.4177C8.57536 9.62037 8.49936 9.80403 8.4677 9.82303C8.4107 9.86736 8.23336 10.6717 8.23336 10.906C8.23336 11.0074 8.20803 11.0834 8.17636 11.0834C8.08136 11.0834 8.00536 12.73 8.0687 13.661C8.10036 14.1614 8.15103 14.5667 8.17636 14.5667C8.2017 14.5667 8.2777 14.7947 8.3347 15.0734C8.39803 15.352 8.4677 15.58 8.49303 15.58C8.51836 15.58 8.55636 15.656 8.57536 15.751C8.6387 16.0044 8.76536 16.2767 8.81603 16.2767C8.84136 16.2767 8.9047 16.378 8.95536 16.4984C9.00603 16.6187 9.0757 16.72 9.10103 16.72C9.1327 16.72 9.2087 16.8277 9.27836 16.9544C9.34803 17.0874 9.4557 17.233 9.5127 17.2774C9.57603 17.3217 9.6267 17.3977 9.6267 17.4484C9.6267 17.499 9.6837 17.5687 9.75336 17.6067C9.82303 17.6447 9.88003 17.708 9.88003 17.746C9.88003 17.8347 10.336 18.3034 10.4184 18.3034C10.4564 18.3034 10.5197 18.3604 10.564 18.43C10.6084 18.4997 10.6844 18.5567 10.735 18.5567C10.7857 18.5567 10.8554 18.6137 10.8934 18.6834C10.9314 18.753 11.001 18.81 11.0517 18.81C11.1024 18.81 11.1784 18.8607 11.2227 18.9177C11.3177 19.0444 11.5014 19.1774 11.6724 19.228C11.7294 19.2534 11.78 19.2914 11.78 19.323C11.78 19.3484 11.8814 19.4244 12.0017 19.4814C12.122 19.5384 12.2234 19.608 12.2234 19.6334C12.2234 19.665 12.35 19.7347 12.5084 19.798C12.6667 19.855 12.7934 19.9247 12.7934 19.9437C12.7934 19.969 12.92 20.0387 13.0784 20.1084C13.2367 20.178 13.3634 20.254 13.3634 20.273C13.3634 20.2984 13.509 20.368 13.68 20.4314C13.8574 20.4947 13.9967 20.5644 13.9967 20.5897C13.9967 20.615 14.1424 20.6847 14.3134 20.748C14.4907 20.8114 14.63 20.881 14.63 20.9064C14.63 20.9254 14.763 20.995 14.9277 21.0584C15.0987 21.1217 15.2634 21.2104 15.3014 21.2484C15.3457 21.2864 15.5357 21.356 15.732 21.4004C15.9284 21.4447 16.0867 21.508 16.0867 21.5397C16.0867 21.5714 16.131 21.5967 16.1817 21.5967C16.264 21.5967 16.2767 22.249 16.2767 27.075V32.5597L15.884 32.5154C15.6624 32.49 15.4724 32.452 15.4534 32.4267C15.4344 32.4014 15.2634 32.3634 15.0734 32.338C14.6047 32.281 14.1234 32.1607 14.1234 32.0974C14.1234 32.072 14.041 32.0467 13.946 32.0467C13.7624 32.0467 13.167 31.8694 13.11 31.7934C13.091 31.7744 12.9517 31.7174 12.7997 31.6667C12.6477 31.616 12.4894 31.5464 12.4514 31.5084C12.4134 31.4704 12.2487 31.3817 12.0777 31.3184C11.913 31.255 11.78 31.179 11.78 31.1537C11.78 31.122 11.742 31.0967 11.704 31.0967C11.609 31.0967 11.0834 30.5774 11.0834 30.4887C11.0834 30.457 11.0264 30.3937 10.9567 30.3494C10.887 30.305 10.83 30.229 10.83 30.1784C10.83 30.1277 10.792 30.0834 10.7414 30.0834C10.659 30.0834 10.526 29.8427 10.5894 29.8047C10.5957 29.7984 10.7794 29.7604 10.982 29.716C11.1974 29.6717 11.4064 29.5894 11.476 29.5134C11.5394 29.4437 11.628 29.3867 11.6724 29.3867C11.7737 29.3867 12.4134 28.709 12.4134 28.6014C12.4134 28.557 12.464 28.4684 12.5274 28.3987C12.711 28.2087 12.7934 27.7464 12.7934 26.9674C12.7934 26.2644 12.7174 25.7767 12.6034 25.7767C12.5717 25.7767 12.5147 25.669 12.4704 25.5424C12.388 25.289 11.8624 24.7254 11.5774 24.5797C11.476 24.529 11.4 24.4657 11.4 24.434C11.4 24.4087 11.362 24.3834 11.3114 24.3834C11.267 24.3834 11.1404 24.339 11.0454 24.2884C10.944 24.2377 10.7414 24.1934 10.5957 24.1934C10.4437 24.1934 10.3234 24.1617 10.3234 24.13C10.3234 24.092 10.165 24.0667 9.97503 24.0667C9.78503 24.0667 9.6267 24.092 9.6267 24.1174C9.6267 24.1427 9.41136 24.2187 9.15803 24.2757C8.61336 24.4024 8.40436 24.5544 7.8217 25.232C7.72036 25.3524 7.58736 25.5044 7.53036 25.5677C7.47336 25.631 7.3847 25.7957 7.34036 25.935C7.2897 26.0744 7.23903 26.201 7.22003 26.22C7.0997 26.334 7.03003 26.676 7.03003 27.1194C7.03003 27.607 7.14403 28.4304 7.2137 28.5C7.23903 28.519 7.3087 28.6964 7.37203 28.8927C7.4417 29.0954 7.51136 29.26 7.5367 29.26C7.56203 29.26 7.6317 29.3614 7.70136 29.4817C7.7647 29.602 7.8407 29.7034 7.86603 29.7034C7.89136 29.7034 7.9547 29.8047 8.00536 29.925C8.05603 30.0454 8.1257 30.1467 8.1637 30.1467C8.19536 30.1467 8.2397 30.1974 8.2587 30.2607C8.3157 30.4317 9.01236 31.2234 9.1137 31.2234C9.13903 31.2234 9.23403 31.3057 9.3227 31.407C9.4177 31.5084 9.5887 31.6224 9.71536 31.6667C9.84203 31.7047 9.94336 31.7617 9.94336 31.7934C9.94336 31.825 10.051 31.901 10.184 31.9644C10.3107 32.0214 10.4564 32.1227 10.5007 32.186C10.545 32.2494 10.64 32.3 10.7034 32.3C10.7667 32.3 10.8617 32.338 10.9124 32.3887C10.963 32.4394 11.1594 32.5344 11.343 32.5914C11.533 32.6547 11.6977 32.7244 11.7167 32.7497C11.7357 32.775 11.9194 32.8447 12.1284 32.9017C12.3374 32.965 12.521 33.0347 12.54 33.0537C12.559 33.079 12.7554 33.155 12.9834 33.2184C13.2114 33.2817 13.4077 33.3577 13.4267 33.383C13.4647 33.4337 14.364 33.63 14.5604 33.63C14.63 33.63 14.6934 33.6554 14.706 33.6934C14.7187 33.725 15.067 33.7947 15.485 33.8327L16.245 33.915L16.264 35.644L16.2767 37.3667H17.9867V34.0734H20.0134V37.3667H21.7234V33.9087L22.5594 33.8327C23.0154 33.7947 23.408 33.7377 23.427 33.706C23.446 33.6807 23.7627 33.611 24.13 33.5477C24.491 33.4907 24.8014 33.4147 24.8267 33.3894C24.8457 33.364 25.0737 33.288 25.3334 33.2247C25.593 33.155 25.821 33.0854 25.84 33.0664C25.859 33.041 26.0364 32.9714 26.239 32.9144C26.4354 32.851 26.6 32.775 26.6 32.7497C26.6 32.7244 26.714 32.661 26.8534 32.6167C26.999 32.566 27.132 32.5027 27.1574 32.4647C27.1827 32.4267 27.303 32.338 27.4234 32.2747C27.5437 32.205 27.702 32.0974 27.7654 32.034C27.835 31.9707 27.93 31.92 27.9744 31.92C28.0187 31.92 28.082 31.863 28.12 31.7934C28.158 31.7237 28.2214 31.6667 28.2657 31.6667C28.3734 31.6667 29.3614 30.6407 29.412 30.476C29.4374 30.4 29.4817 30.3367 29.5134 30.3367C29.545 30.3367 29.621 30.2354 29.678 30.115C29.735 29.9947 29.8047 29.8934 29.83 29.8934C29.8617 29.8934 29.9314 29.7667 29.9947 29.6084C30.0517 29.45 30.1214 29.3234 30.1467 29.3234C30.1974 29.3234 30.4 28.728 30.4 28.5887C30.4 28.538 30.4254 28.5 30.457 28.5C30.4887 28.5 30.5647 28.2784 30.6217 28.006C30.685 27.74 30.7547 27.4994 30.7927 27.4804C31.0334 27.3284 31.0207 22.42 30.7737 22.42C30.7484 22.42 30.6914 22.2617 30.647 22.0654C30.6027 21.869 30.533 21.679 30.495 21.6347C30.457 21.5967 30.3684 21.432 30.305 21.261C30.2417 21.0964 30.172 20.9634 30.153 20.9634C30.1277 20.9634 30.058 20.8557 29.9884 20.7227C29.9187 20.596 29.811 20.4504 29.754 20.406C29.6907 20.3617 29.64 20.292 29.64 20.2604C29.64 20.2224 29.412 19.969 29.1397 19.6904C28.861 19.418 28.6077 19.19 28.5697 19.19C28.538 19.19 28.4684 19.1394 28.424 19.076C28.3797 19.019 28.2404 18.9114 28.12 18.848C27.9997 18.7784 27.8414 18.6707 27.778 18.6074C27.7084 18.544 27.6197 18.4934 27.5754 18.4934C27.531 18.4934 27.4677 18.4554 27.4424 18.411C27.417 18.3667 27.284 18.278 27.1574 18.2084C27.0244 18.1387 26.9167 18.0627 26.9167 18.0437C26.9167 18.0184 26.7774 17.9487 26.6 17.8854C26.429 17.822 26.2834 17.7524 26.2834 17.727C26.2834 17.7017 26.144 17.632 25.9667 17.5687C25.7957 17.5054 25.65 17.4357 25.65 17.4104C25.65 17.385 25.5107 17.3154 25.3334 17.252C25.1624 17.1887 25.0167 17.119 25.0167 17.0937C25.0167 17.0747 24.8457 17.005 24.6367 16.948C24.4277 16.891 24.2567 16.815 24.2567 16.7897C24.2567 16.7644 24.0794 16.6884 23.864 16.6187C23.6424 16.5554 23.4334 16.473 23.3954 16.435C23.351 16.397 23.161 16.3274 22.9647 16.2767C22.7684 16.2324 22.61 16.1754 22.61 16.15C22.61 16.131 22.4707 16.0614 22.2934 15.998C22.1224 15.9347 21.9767 15.8587 21.9767 15.827C21.9767 15.7954 21.9197 15.77 21.85 15.77C21.7234 15.77 21.7234 15.7257 21.7234 10.64V5.51003H22.04C22.2174 5.51003 22.3567 5.53537 22.3567 5.57337C22.3567 5.60503 22.4644 5.6367 22.591 5.6367C22.8634 5.6367 23.8324 5.83303 23.8767 5.89637C23.8957 5.91537 24.073 5.98503 24.2757 6.04203C24.472 6.09903 24.6367 6.17503 24.6367 6.2067C24.6367 6.2447 24.6874 6.27003 24.757 6.27003C24.8204 6.27003 24.909 6.31437 24.9534 6.36503C24.9977 6.4157 25.0547 6.46003 25.0864 6.46003C25.1117 6.46003 25.2067 6.52337 25.2954 6.59937C25.3777 6.6817 25.4917 6.78303 25.5487 6.82737C25.6057 6.8717 25.65 7.0047 25.65 7.12503C25.65 7.32137 25.631 7.3467 25.4284 7.3847C25.308 7.4037 25.2067 7.44803 25.2067 7.4797C25.2067 7.51137 25.1624 7.5367 25.1117 7.5367C25.0547 7.5367 24.928 7.58103 24.8204 7.6317C24.5544 7.77103 23.94 8.3727 23.94 8.49303C23.94 8.55003 23.883 8.6577 23.8134 8.74003C23.6994 8.87303 23.56 9.24037 23.56 9.4177C23.56 9.46203 23.5347 9.50003 23.4967 9.50003C23.4587 9.50003 23.4334 9.76603 23.4334 10.165C23.4334 10.5324 23.4524 10.83 23.484 10.83C23.5094 10.83 23.5854 11.001 23.6487 11.21C23.7184 11.419 23.7944 11.59 23.8197 11.59C23.845 11.59 23.883 11.6407 23.9084 11.7104C23.9654 11.8877 24.4657 12.3817 24.6937 12.483C24.8014 12.5337 24.89 12.5907 24.89 12.616C24.89 12.6667 25.2637 12.8567 25.3714 12.8567C25.4157 12.8567 25.46 12.8947 25.4727 12.9327C25.5107 13.0404 27.1574 13.0467 27.2207 12.939C27.246 12.901 27.3537 12.8567 27.455 12.8314C27.5627 12.806 27.7337 12.7174 27.8287 12.635C27.93 12.5464 28.0314 12.4767 28.0567 12.4767C28.1264 12.4767 28.5 12.084 28.5 12.0144C28.5 11.9827 28.5697 11.9004 28.6584 11.8307C28.747 11.761 28.8167 11.6724 28.8167 11.6217C28.8167 11.5774 28.8547 11.5267 28.9054 11.5077C28.956 11.4887 29.032 11.305 29.07 11.1024C29.2094 10.4374 29.0574 8.1067 28.8737 8.1067C28.8484 8.1067 28.7787 7.98003 28.7154 7.8217C28.6584 7.66337 28.5887 7.5367 28.5697 7.5367C28.5444 7.5367 28.4874 7.42903 28.443 7.30237C28.386 7.14403 28.1074 6.82103 27.6197 6.34603C26.771 5.51637 26.7584 5.5037 26.505 5.38337C26.4037 5.3327 26.3024 5.26937 26.2834 5.25037C26.2644 5.23137 26.144 5.1617 26.0174 5.09837C25.8844 5.04137 25.7767 4.96537 25.7767 4.94003C25.7767 4.92103 25.612 4.84503 25.4157 4.77536C25.213 4.71203 25.0357 4.63603 25.0167 4.61703C24.9977 4.5917 24.8077 4.52203 24.5924 4.46503C24.3707 4.4017 24.1934 4.33203 24.1934 4.3067C24.1934 4.2497 23.636 4.12936 23.1357 4.0787C22.914 4.05336 22.7367 4.01537 22.7367 3.9837C22.7367 3.95837 22.5087 3.91403 22.23 3.8887L21.7234 3.84436V0.633366H20.0134V3.7367H19.3674C19.0064 3.7367 18.6074 3.7557 18.4807 3.7747L18.24 3.81903V0.633366H16.2767L16.264 2.26103ZM20.0134 10.1334C20.0134 13.053 19.988 14.9467 19.9564 14.9467C19.9247 14.9467 19.855 14.9024 19.798 14.8517C19.7474 14.801 19.6777 14.7567 19.6397 14.7567C19.5384 14.7567 18.9747 14.554 18.9367 14.5097C18.9177 14.4844 18.7657 14.4147 18.5884 14.345C18.4174 14.2817 18.2337 14.193 18.1957 14.1487C18.1324 14.0854 18.1134 13.1227 18.1134 9.7597V5.45303L18.3224 5.41503C18.506 5.38337 18.7024 5.37703 19.7157 5.3327L20.0134 5.32003V10.1334ZM16.2767 9.5317C16.2767 13.148 16.2704 13.357 16.169 13.319C16.1057 13.2937 16.017 13.2367 15.9727 13.1924C15.9284 13.148 15.846 13.11 15.8017 13.11C15.751 13.11 15.675 13.0594 15.6307 12.996C15.5484 12.8884 15.3837 12.768 15.2 12.6857C15.1494 12.6604 15.067 12.5907 15.0227 12.5274C14.9784 12.464 14.9087 12.4134 14.877 12.4134C14.763 12.4134 13.832 11.419 13.7434 11.2037C13.699 11.0834 13.6294 10.9567 13.585 10.925C13.4647 10.8237 13.3824 10.6274 13.3317 10.3234C13.3064 10.165 13.2557 10.0194 13.2177 9.99403C13.1354 9.94337 13.148 8.96803 13.2367 8.9427C13.2684 8.93003 13.3 8.83503 13.3 8.7337C13.3 8.5247 13.49 7.77736 13.5597 7.7267C13.5787 7.7077 13.6167 7.63803 13.642 7.56837C13.661 7.4987 13.7624 7.34036 13.87 7.22003C13.9777 7.0997 14.079 6.9477 14.098 6.88437C14.117 6.82737 14.155 6.7767 14.1867 6.7767C14.2184 6.7767 14.288 6.69436 14.3387 6.59303C14.3894 6.49803 14.5287 6.3777 14.6427 6.32703C14.7567 6.2827 14.9087 6.19403 14.972 6.1307C15.0417 6.06737 15.1304 6.0167 15.1747 6.0167C15.219 6.0167 15.295 5.9787 15.3457 5.92803C15.4344 5.83937 15.8587 5.71903 16.1374 5.70637L16.2767 5.70003V9.5317ZM18.5884 22.439C18.658 22.5277 19.5194 22.7367 19.8234 22.7367H20.0134V32.8067H19.551C19.2914 32.8067 18.867 32.8257 18.601 32.8447L18.1134 32.889V22.2364L18.3224 22.2997C18.43 22.3314 18.5567 22.3947 18.5884 22.439ZM22.021 23.6994C22.116 23.7437 22.2554 23.8324 22.3187 23.8894C22.3884 23.9527 22.4834 24.0034 22.5277 24.0034C22.572 24.0034 22.6354 24.0604 22.6734 24.13C22.7114 24.1997 22.781 24.2567 22.8317 24.2567C22.8824 24.2567 22.9584 24.3074 23.0027 24.3707C23.047 24.434 23.1294 24.5037 23.18 24.529C23.5157 24.681 24.2314 25.4094 24.32 25.688C24.3644 25.8084 24.415 25.9034 24.4404 25.9034C24.4657 25.9034 24.529 26.0237 24.5734 26.163C24.624 26.3087 24.7 26.467 24.7444 26.5114C24.8837 26.6444 24.9534 27.1954 24.9534 28.101C24.9534 28.918 24.8584 29.83 24.7697 29.8934C24.7444 29.9124 24.6747 30.0644 24.605 30.2417C24.5417 30.4127 24.4214 30.609 24.339 30.6724C24.2567 30.7357 24.1934 30.8307 24.1934 30.8814C24.1934 30.932 24.168 30.97 24.1427 30.97C24.111 30.97 24.054 31.0397 24.016 31.1284C23.9717 31.217 23.8894 31.3057 23.8324 31.331C23.769 31.3564 23.617 31.4767 23.4904 31.6034C23.37 31.73 23.18 31.8694 23.066 31.9137C22.9584 31.958 22.8064 32.0467 22.7367 32.11C22.667 32.1734 22.477 32.262 22.325 32.3064C22.1667 32.3507 22.04 32.4077 22.04 32.433C22.04 32.4584 21.9704 32.49 21.8817 32.5027L21.7234 32.5344V28.082C21.7234 25.2954 21.7487 23.6234 21.7867 23.6234C21.8184 23.6234 21.926 23.6614 22.021 23.6994Z" fill="#5C70AB"/>
</svg>
