<svg width="38" height="38" viewBox="0 0 38 38" fill="none" xmlns="http://www.w3.org/2000/svg">
<path d="M31.9123 17.0797C32.1521 16.454 32.2866 15.7698 32.2866 15.0564C32.2866 11.9571 29.7721 9.44255 26.6728 9.44255C25.5208 9.44255 24.4448 9.79341 23.5559 10.3899C21.9361 7.58298 18.9129 5.70001 15.4452 5.70001C10.2758 5.70001 6.08881 9.88698 6.08881 15.0564C6.08881 15.2142 6.09466 15.3721 6.10051 15.53C2.82579 16.682 0.475006 19.8047 0.475006 23.4771C0.475006 28.126 4.24678 31.8978 8.89572 31.8978H30.4153C34.5496 31.8978 37.9004 28.547 37.9004 24.4127C37.9004 20.793 35.3274 17.7697 31.9123 17.0797Z" fill="#5C70AB"/>
</svg>
