<svg width="20" height="40" viewBox="0 0 20 40" fill="none" xmlns="http://www.w3.org/2000/svg">
<path d="M8.73766 22.0188L9.66267 21.0937C10.0543 20.7021 10.6877 20.7021 11.0752 21.0937L19.1753 29.1897C19.567 29.5814 19.567 30.2147 19.1753 30.6022L11.0752 38.7023C10.6835 39.094 10.0502 39.094 9.66267 38.7023L8.73766 37.7773C8.34182 37.3815 8.35015 36.7356 8.75432 36.3481L13.7752 31.5647H1.80006C1.24589 31.5647 0.800049 31.1189 0.800049 30.5647V29.2314C0.800049 28.6772 1.24589 28.2313 1.80006 28.2313H13.7752L8.75432 23.4479C8.34598 23.0604 8.33765 22.4146 8.73766 22.0188Z" fill="#DEDEDF"/>
<path d="M11.5314 17.7773L10.6064 18.7023C10.2148 19.094 9.58142 19.094 9.19391 18.7023L1.0938 10.6064C0.702131 10.2147 0.702131 9.58136 1.0938 9.19385L9.19391 1.09374C9.58558 0.70207 10.2189 0.70207 10.6064 1.09374L11.5314 2.01875C11.9273 2.41459 11.919 3.06044 11.5148 3.44794L6.49388 8.23134H18.469C19.0232 8.23134 19.4691 8.67718 19.4691 9.23135V10.5647C19.4691 11.1189 19.0232 11.5647 18.469 11.5647H6.49388L11.5148 16.3481C11.9231 16.7356 11.9314 17.3815 11.5314 17.7773Z" fill="#DEDEDF"/>
</svg>
