<svg width="38" height="38" viewBox="0 0 38 38" fill="none" xmlns="http://www.w3.org/2000/svg">
<path fill-rule="evenodd" clip-rule="evenodd" d="M9.46437 15.6869H12.9081L11.1862 9.77314L9.46437 15.6869ZM13.5256 18.1094H8.84687L8.14625 20.52H4.85687L9.34562 6.88751H13.0031L17.5156 20.52H14.2262L13.5256 18.1094ZM26.3031 17.1238C25.5787 16.0906 25.0325 14.9388 24.7 13.7275H27.8944C27.5737 14.9388 27.0394 16.0906 26.3031 17.1238ZM31.7894 13.7275V11.4238H27.3244V9.88001H25.0444V11.4238H20.5794V13.7275H22.2537C22.6219 15.58 23.465 17.3731 24.7237 19.0356C23.6669 20.0806 22.4912 20.995 21.2087 21.7431L22.4319 23.8331C23.845 23.0019 25.1394 21.9925 26.315 20.8525C27.4787 21.9925 28.785 23.0019 30.1862 23.8331L31.4212 21.7431C30.1387 20.9831 28.9631 20.0806 27.9062 19.0356C29.165 17.385 30.0081 15.58 30.3762 13.7275H31.7894Z" fill="#5C70AB"/>
<path fill-rule="evenodd" clip-rule="evenodd" d="M34.7106 26.0538H16.15L8.51435 30.7682V26.0538H3.1706V5.32002H34.6987L34.7106 26.0538ZM36.2781 2.49377H1.67435C1.00935 2.49377 0.474976 3.04002 0.474976 3.70502V27.3957C0.474976 28.0606 1.02123 28.6069 1.67435 28.6069H6.1156V35.6013L16.2212 28.6069H36.2781C36.9431 28.6069 37.4775 28.0606 37.4775 27.3957V3.70502C37.4775 3.04002 36.9431 2.50565 36.2781 2.49377Z" fill="#5C70AB"/>
</svg>
