<svg width="40" height="20" viewBox="0 0 40 20" fill="none" xmlns="http://www.w3.org/2000/svg">
<path d="M2.09626 11.2977L1.17989 10.3813C0.791883 9.99333 0.791883 9.36592 1.17989 8.98203L9.20014 0.957664C9.58815 0.569654 10.2156 0.569654 10.5994 0.957664L18.6197 8.97791C19.0077 9.36592 19.0077 9.99334 18.6197 10.3772L17.7033 11.2936C17.3112 11.6857 16.6714 11.6775 16.2875 11.2771L11.553 6.30724V18.1704C11.553 18.7194 11.1113 19.1611 10.5623 19.1611H9.24141C8.69242 19.1611 8.25075 18.7194 8.25075 18.1704V6.30724L3.51208 11.2812C3.1282 11.6857 2.48839 11.694 2.09626 11.2977Z" fill="#5C70AB"/>
<path d="M37.7036 8.52824L38.6198 9.4444C39.0077 9.83232 39.0077 10.4596 38.6198 10.8434L30.6014 18.8659C30.2134 19.2538 29.5862 19.2538 29.2024 18.8659L21.1798 10.8434C20.7919 10.4555 20.7919 9.82819 21.1798 9.4444L22.096 8.52824C22.488 8.1362 23.1277 8.14445 23.5115 8.54475L28.2491 13.5176V1.65709C28.2491 1.10823 28.6906 0.666656 29.2395 0.666656H30.5601C31.1089 0.666656 31.5505 1.10823 31.5505 1.65709V13.5176L36.2881 8.54475C36.6719 8.14032 37.3116 8.13207 37.7036 8.52824Z" fill="#5C70AB"/>
</svg>
